<?xml version="1.0" standalone="no"?>
<!DOCTYPE svg PUBLIC "-//W3C//DTD SVG 20010904//EN"
 "http://www.w3.org/TR/2001/REC-SVG-20010904/DTD/svg10.dtd">
<svg version="1.0" xmlns="http://www.w3.org/2000/svg"
 width="700.000000pt" height="700.000000pt" viewBox="0 0 700.000000 700.000000"
 preserveAspectRatio="xMidYMid meet">
<metadata>
Created by potrace 1.14, written by Peter Selinger 2001-2017
</metadata>
<g transform="translate(0.000000,700.000000) scale(0.100000,-0.100000)"
fill="#000000" stroke="none">
<path d="M4649 4838 c-1 -29 -3 -73 -4 -98 -2 -25 -6 -85 -9 -135 -3 -49 -8
-121 -11 -160 -2 -38 -7 -108 -10 -155 -2 -47 -8 -128 -11 -180 -3 -52 -7
-115 -9 -140 -2 -25 -4 -73 -6 -107 -1 -37 -7 -63 -13 -64 -6 0 -816 -1 -1801
-2 l-1790 -2 0 -270 -1 -270 1798 0 c989 0 1799 -2 1799 -5 1 -3 3 -252 4
-555 2 -302 4 -560 4 -572 1 -16 178 155 717 694 l716 716 -679 679 c-373 373
-681 678 -685 678 -5 0 -9 -24 -9 -52z"/>
</g>
</svg>
