<?xml version="1.0" standalone="no"?>
<!DOCTYPE svg PUBLIC "-//W3C//DTD SVG 20010904//EN"
 "http://www.w3.org/TR/2001/REC-SVG-20010904/DTD/svg10.dtd">
<svg version="1.0" xmlns="http://www.w3.org/2000/svg"
 width="700.000000pt" height="700.000000pt" viewBox="0 0 700.000000 700.000000"
 preserveAspectRatio="xMidYMid meet">
<metadata>
Created by potrace 1.14, written by Peter Selinger 2001-2017
</metadata>
<g transform="translate(0.000000,700.000000) scale(0.100000,-0.100000)"
fill="#000000" stroke="none">
<path d="M3100 5588 c-1 -145 -2 -289 -3 -320 l-2 -57 828 4 c455 2 827 1 827
-1 0 -3 -859 -863 -1910 -1912 -1051 -1049 -1910 -1910 -1910 -1914 0 -3 100
-106 222 -228 l221 -222 1912 1912 c1127 1127 1914 1906 1916 1899 3 -8 4
-203 3 -434 -1 -231 -3 -591 -4 -800 -1 -209 -1 -386 -1 -392 1 -10 72 -12
319 -9 l317 3 1 1366 1 1367 -1367 0 -1367 0 -3 -262z"/>
</g>
</svg>
